#!OML:ASF C:\Vicon Data\Big\jianyuan-13\jianyuan\Session 1\Capture.male.ASF
:FULLY-SPECIFIED
:DEGREES
1
root -7.733500 17.696300 -23.999400 10.145088 -5.174408 3.203008
lowerback -12.985500 -1.712800 -4.918010 
upperback 2.531070 -1.382890 -0.864426 
thorax 10.164100 -0.924060 1.544710 
lowerneck -4.344540 -0.692030 1.448970 
upperneck 23.302100 -0.597332 -2.544290 
head 7.867110 -0.394900 -1.136090 
rclavicle 0.000000 0.000000 
rhumerus -39.797600 -23.750700 -73.247700 
rradius 26.292600 
rwrist 37.484700 
rhand -17.333600 -16.420000 
rfingers 0.000000 
rthumb 8.913420 -46.211700 
lclavicle 0.000000 0.000000 
lhumerus -11.187400 -0.425715 93.666400 
lradius 48.431200 
lwrist -27.882700 
lhand -19.889100 3.092480 
lfingers 0.000000 
lthumb 6.446860 32.974400 
rfemur -33.539200 1.174560 22.602500 
rtibia 26.790700 
rfoot -8.156870 -11.422000 
rtoes -20.801700 
lfemur -0.850641 -4.210980 -28.993100 
ltibia 17.749400 
lfoot -11.428500 -5.180540 
ltoes -28.350100 
2
root -7.734146 17.696545 -23.995447 10.151256 -5.170698 3.202182
lowerback -12.990564 -1.714603 -4.917519 
upperback 2.529263 -1.385319 -0.862421 
thorax 10.165260 -0.925250 1.545988 
lowerneck -4.339450 -0.696573 1.454371 
upperneck 23.299731 -0.601602 -2.556716 
head 7.865192 -0.397558 -1.141397 
rclavicle 0.000000 0.000000 
rhumerus -39.790404 -23.732910 -73.262361 
rradius 26.304280 
rwrist 37.445797 
rhand -17.339979 -16.431688 
rfingers 0.000000 
rthumb 8.907264 -46.223650 
lclavicle 0.000000 0.000000 
lhumerus -11.193942 -0.428923 93.668818 
lradius 48.422803 
lwrist -27.895940 
lhand -19.887491 3.084051 
lfingers 0.000000 
lthumb 6.448415 32.965922 
rfemur -33.533262 1.180413 22.601642 
rtibia 26.786592 
rfoot -8.154934 -11.434317 
rtoes -20.793810 
lfemur -0.857060 -4.209649 -28.987440 
ltibia 17.772417 
lfoot -11.411748 -5.186690 
ltoes -28.380019 
3
root -7.734469 17.696668 -23.993470 10.154339 -5.168842 3.201769
lowerback -12.993096 -1.715505 -4.917274 
upperback 2.528360 -1.386534 -0.861419 
thorax 10.165840 -0.925845 1.546627 
lowerneck -4.336905 -0.698844 1.457071 
upperneck 23.298547 -0.603736 -2.562929 
head 7.864233 -0.398887 -1.144051 
rclavicle 0.000000 0.000000 
rhumerus -39.786806 -23.724016 -73.269692 
rradius 26.310120 
rwrist 37.426345 
rhand -17.343169 -16.437532 
rfingers 0.000000 
rthumb 8.904186 -46.229624 
lclavicle 0.000000 0.000000 
lhumerus -11.197214 -0.430527 93.670027 
lradius 48.418605 
lwrist -27.902560 
lhand -19.886686 3.079836 
lfingers 0.000000 
lthumb 6.449193 32.961683 
rfemur -33.530293 1.183340 22.601214 
rtibia 26.784537 
rfoot -8.153966 -11.440476 
rtoes -20.789865 
lfemur -0.860270 -4.208984 -28.984610 
ltibia 17.783925 
lfoot -11.403372 -5.189766 
ltoes -28.394978 
4
root -7.734792 17.696790 -23.991493 10.157423 -5.166987 3.201356
lowerback -12.995628 -1.716407 -4.917028 
upperback 2.527457 -1.387748 -0.860416 
thorax 10.166420 -0.926440 1.547267 
lowerneck -4.334360 -0.701116 1.459771 
upperneck 23.297363 -0.605871 -2.569141 
head 7.863274 -0.400216 -1.146705 
rclavicle 0.000000 0.000000 
rhumerus -39.783208 -23.715121 -73.277023 
rradius 26.315960 
rwrist 37.406893 
rhand -17.346358 -16.443376 
rfingers 0.000000 
rthumb 8.901108 -46.235599 
lclavicle 0.000000 0.000000 
lhumerus -11.200485 -0.432130 93.671235 
lradius 48.414407 
lwrist -27.909180 
lhand -19.885882 3.075622 
lfingers 0.000000 
lthumb 6.449970 32.957444 
rfemur -33.527324 1.186266 22.600785 
rtibia 26.782483 
rfoot -8.152998 -11.446634 
rtoes -20.785920 
lfemur -0.863480 -4.208319 -28.981779 
ltibia 17.795434 
lfoot -11.394996 -5.192841 
ltoes -28.409938 
5
root -7.735114 17.696913 -23.989517 10.160506 -5.165132 3.200943
lowerback -12.998160 -1.717309 -4.916783 
upperback 2.526553 -1.388963 -0.859414 
thorax 10.167000 -0.927035 1.547906 
lowerneck -4.331815 -0.703387 1.462471 
upperneck 23.296178 -0.608006 -2.575354 
head 7.862315 -0.401545 -1.149359 
rclavicle 0.000000 0.000000 
rhumerus -39.779610 -23.706226 -73.284353 
rradius 26.321800 
rwrist 37.387442 
rhand -17.349548 -16.449220 
rfingers 0.000000 
rthumb 8.898030 -46.241574 
lclavicle 0.000000 0.000000 
lhumerus -11.203756 -0.433734 93.672444 
lradius 48.410209 
lwrist -27.915800 
lhand -19.885077 3.071407 
lfingers 0.000000 
lthumb 6.450748 32.953204 
rfemur -33.524355 1.189193 22.600356 
rtibia 26.780429 
rfoot -8.152031 -11.452793 
rtoes -20.781975 
lfemur -0.866689 -4.207654 -28.978949 
ltibia 17.806942 
lfoot -11.386619 -5.195916 
ltoes -28.424897 
6
root -7.735437 17.697035 -23.987540 10.163590 -5.163277 3.200530
lowerback -13.000692 -1.718210 -4.916537 
upperback 2.525650 -1.390177 -0.858412 
thorax 10.167579 -0.927630 1.548545 
lowerneck -4.329269 -0.705659 1.465172 
upperneck 23.294994 -0.610141 -2.581567 
head 7.861357 -0.402874 -1.152012 
rclavicle 0.000000 0.000000 
rhumerus -39.776012 -23.697331 -73.291684 
rradius 26.327640 
rwrist 37.367990 
rhand -17.352737 -16.455064 
rfingers 0.000000 
rthumb 8.894952 -46.247549 
lclavicle 0.000000 0.000000 
lhumerus -11.207027 -0.435338 93.673653 
lradius 48.406010 
lwrist -27.922420 
lhand -19.884273 3.067192 
lfingers 0.000000 
lthumb 6.451525 32.948965 
rfemur -33.521386 1.192119 22.599927 
rtibia 26.778375 
rfoot -8.151063 -11.458951 
rtoes -20.778030 
lfemur -0.869899 -4.206988 -28.976119 
ltibia 17.818451 
lfoot -11.378243 -5.198991 
ltoes -28.439856 
7
root -7.735760 17.697158 -23.985564 10.166674 -5.161422 3.200117
lowerback -13.003224 -1.719112 -4.916292 
upperback 2.524746 -1.391392 -0.857409 
thorax 10.168159 -0.928225 1.549184 
lowerneck -4.326724 -0.707930 1.467872 
upperneck 23.293810 -0.612275 -2.587780 
head 7.860398 -0.404203 -1.154666 
rclavicle 0.000000 0.000000 
rhumerus -39.772414 -23.688437 -73.299014 
rradius 26.333480 
rwrist 37.348538 
rhand -17.355927 -16.460909 
rfingers 0.000000 
rthumb 8.891874 -46.253523 
lclavicle 0.000000 0.000000 
lhumerus -11.210299 -0.436942 93.674862 
lradius 48.401812 
lwrist -27.929040 
lhand -19.883468 3.062978 
lfingers 0.000000 
lthumb 6.452303 32.944726 
rfemur -33.518417 1.195046 22.599498 
rtibia 26.776321 
rfoot -8.150095 -11.465110 
rtoes -20.774085 
lfemur -0.873109 -4.206323 -28.973289 
ltibia 17.829959 
lfoot -11.369867 -5.202066 
ltoes -28.454816 
8
root -7.736083 17.697280 -23.983587 10.169757 -5.159567 3.199704
lowerback -13.005756 -1.720014 -4.916046 
upperback 2.523843 -1.392606 -0.856407 
thorax 10.168739 -0.928820 1.549823 
lowerneck -4.324179 -0.710202 1.470572 
upperneck 23.292625 -0.614410 -2.593993 
head 7.859439 -0.405532 -1.157320 
rclavicle 0.000000 0.000000 
rhumerus -39.768817 -23.679542 -73.306345 
rradius 26.339320 
rwrist 37.329086 
rhand -17.359116 -16.466753 
rfingers 0.000000 
rthumb 8.888796 -46.259498 
lclavicle 0.000000 0.000000 
lhumerus -11.213570 -0.438546 93.676071 
lradius 48.397614 
lwrist -27.935660 
lhand -19.882664 3.058763 
lfingers 0.000000 
lthumb 6.453081 32.940487 
rfemur -33.515448 1.197972 22.599070 
rtibia 26.774266 
rfoot -8.149127 -11.471268 
rtoes -20.770140 
lfemur -0.876318 -4.205658 -28.970459 
ltibia 17.841468 
lfoot -11.361491 -5.205142 
ltoes -28.469775 
9
root -7.736406 17.697403 -23.981610 10.172841 -5.157712 3.199291
lowerback -13.008288 -1.720916 -4.915801 
upperback 2.522940 -1.393821 -0.855404 
thorax 10.169319 -0.929415 1.550462 
lowerneck -4.321634 -0.712473 1.473273 
upperneck 23.291441 -0.616545 -2.600206 
head 7.858480 -0.406861 -1.159974 
rclavicle 0.000000 0.000000 
rhumerus -39.765219 -23.670647 -73.313676 
rradius 26.345160 
rwrist 37.309635 
rhand -17.362306 -16.472597 
rfingers 0.000000 
rthumb 8.885718 -46.265473 
lclavicle 0.000000 0.000000 
lhumerus -11.216841 -0.440150 93.677280 
lradius 48.393416 
lwrist -27.942280 
lhand -19.881859 3.054549 
lfingers 0.000000 
lthumb 6.453858 32.936248 
rfemur -33.512479 1.200899 22.598641 
rtibia 26.772212 
rfoot -8.148159 -11.477427 
rtoes -20.766194 
lfemur -0.879528 -4.204993 -28.967629 
ltibia 17.852976 
lfoot -11.353115 -5.208217 
ltoes -28.484734 
